#!OML:ASF H:\Punching\Project 1\Capture day 1\Session 1\female.ASF
:FULLY-SPECIFIED
:DEGREES
3604
root 2.46115 15.6366 25.3534 10.8994 187.482 4.00953
lowerback -5.02036 0.622827 6.20273
upperback -5.23294 0.267908 0.540124
thorax -2.56558 -0.224106 -2.9012
lowerneck -13.6652 6.17981 9.38734
upperneck 39.2852 4.07813 -4.41838
head 16.9534 1.0745 -3.3437
rclavicle -2.22619e-014 1.00138e-014
rhumerus -29.7888 1.55718 -76.8166
rradius 27.1995
rwrist 11.1869
rhand -11.1925 -7.36862
rfingers 7.12502
rthumb 14.835 -36.8176
lclavicle -2.22619e-014 1.00138e-014
lhumerus -46.5496 10.247 73.6617
lradius 34.2347
lwrist -18.0008
lhand -4.87624 12.7421
lfingers 7.12502
lthumb 20.9123 41.6349
rfemur -9.41749 3.49323 29.5817
rtibia 19.0504
rfoot -17.6374 -16.1976
rtoes 1.7242
lfemur -39.4968 -5.53571 -16.7425
ltibia 36.2041
lfoot -16.4335 17.8932
ltoes -0.872146
3605
root 2.45516 15.6334 25.2388 11.0342 187.492 4.15425
lowerback -5.1796 0.702792 6.28128
upperback -5.28021 0.351637 0.555986
thorax -2.51792 -0.188718 -2.92567
lowerneck -13.6802 6.15447 9.34676
upperneck 39.3381 4.02079 -4.36692
head 16.9771 1.05 -3.32668
rclavicle 4.3422e-015 1.47349e-014
rhumerus -29.4025 1.82134 -77.0643
rradius 27.4628
rwrist 10.9077
rhand -11.2662 -7.32198
rfingers 7.12502
rthumb 14.7641 -36.7761
lclavicle 4.3422e-015 1.47349e-014
lhumerus -46.6648 10.4781 73.4859
lradius 34.0708
lwrist -18.1045
lhand -4.74299 12.6925
lfingers 7.12502
lthumb 21.0403 41.5711
rfemur -8.6079 3.38576 29.7809
rtibia 18.0293
rfoot -17.53 -16.0434
rtoes 1.63295
lfemur -39.7202 -6.04778 -16.1718
ltibia 34.0352
lfoot -16.632 18.5866
ltoes -1.0835
3606
root 2.44865 15.6292 25.1238 11.1701 187.489 4.30433
lowerback -5.33416 0.783442 6.35226
upperback -5.33044 0.436295 0.574595
thorax -2.47576 -0.152992 -2.94267
lowerneck -13.694 6.13071 9.31461
upperneck 39.3825 3.96673 -4.31913
head 16.9968 1.02814 -3.31164
rclavicle -2.23089e-015 -6.31141e-015
rhumerus -29.0365 2.06446 -77.3122
rradius 27.7394
rwrist 10.5615
rhand -11.347 -7.30316
rfingers 7.12502
rthumb 14.6862 -36.763
lclavicle -2.23089e-015 -6.31141e-015
lhumerus -46.787 10.7077 73.3025
lradius 33.8971
lwrist -18.2157
lhand -4.60319 12.6363
lfingers 7.12502
lthumb 21.1746 41.4999
rfemur -7.77326 3.29661 29.9801
rtibia 16.9585
rfoot -17.3901 -15.8842
rtoes 1.52291
lfemur -39.9587 -6.54711 -15.5686
ltibia 31.9835
lfoot -16.8643 19.2127
ltoes -1.40647
3607
root 2.44128 15.6239 25.0081 11.2936 187.479 4.45053
lowerback -5.484 0.859167 6.4115
upperback -5.36496 0.516172 0.592136
thorax -2.42024 -0.117703 -2.95412
lowerneck -13.7338 6.10785 9.28302
upperneck 39.4165 3.91617 -4.26849
head 17.0176 1.00997 -3.29362
rclavicle -1.97076e-015 2.09221e-014
rhumerus -28.6751 2.29559 -77.5669
rradius 28.0427
rwrist 10.1476
rhand -11.4379 -7.30811
rfingers 7.12502
rthumb 14.5986 -36.7743
lclavicle -1.97076e-015 2.09221e-014
lhumerus -46.8907 10.9379 73.118
lradius 33.7154
lwrist -18.3423
lhand -4.46718 12.5753
lfingers 7.12502
lthumb 21.3053 41.4242
rfemur -6.89447 3.19792 30.1699
rtibia 15.8346
rfoot -17.2231 -15.7056
rtoes 1.38773
lfemur -40.203 -7.02883 -14.9539
ltibia 30.079
lfoot -17.1499 19.7279
ltoes -1.76825
3608
root 2.43345 15.6176 24.892 11.4076 187.457 4.59701
lowerback -5.61414 0.933108 6.46096
upperback -5.39866 0.595906 0.607918
thorax -2.37484 -0.0822175 -2.96172
lowerneck -13.7789 6.08715 9.2611
upperneck 39.4429 3.86865 -4.21987
head 17.0366 0.994925 -3.27708
rclavicle 1.95849e-014 -1.15295e-014
rhumerus -28.3326 2.50451 -77.8282
rradius 28.3546
rwrist 9.70288
rhand -11.5302 -7.33617
rfingers 7.12502
rthumb 14.5097 -36.8088
lclavicle 1.95849e-014 -1.15295e-014
lhumerus -46.9994 11.1512 72.9318
lradius 33.5352
lwrist -18.4754
lhand -4.34089 12.5294
lfingers 7.12502
lthumb 21.4266 41.3645
rfemur -5.97356 3.12448 30.3556
rtibia 14.6517
rfoot -17.0163 -15.5319
rtoes 1.23024
lfemur -40.4678 -7.4682 -14.3341
ltibia 28.3521
lfoot -17.4702 20.104
ltoes -2.20855
3609
root 2.42503 15.6105 24.7752 11.508 187.426 4.73754
lowerback -5.727 1.00342 6.49779
upperback -5.42823 0.673353 0.619126
thorax -2.33495 -0.047145 -2.96693
lowerneck -13.8259 6.06733 9.24284
upperneck 39.4587 3.82098 -4.16375
head 17.0502 0.982204 -3.25698
rclavicle 2.17856e-014 5.46658e-015
rhumerus -28.0096 2.68676 -78.0971
rradius 28.6718
rwrist 9.24248
rhand -11.6272 -7.38174
rfingers 7.12502
rthumb 14.4162 -36.8611
lclavicle 2.17856e-014 5.46658e-015
lhumerus -47.111 11.352 72.7393
lradius 33.3538
lwrist -18.624
lhand -4.22198 12.4986
lfingers 7.12502
lthumb 21.5408 41.3207
rfemur -5.00014 3.06749 30.5308
rtibia 13.401
rfoot -16.769 -15.3585
rtoes 1.05837
lfemur -40.7513 -7.8684 -13.7213
ltibia 26.8278
lfoot -17.8235 20.3355
ltoes -2.70314
3610
root 2.41603 15.6025 24.658 11.5931 187.388 4.88025
lowerback -5.81336 1.07054 6.53287
upperback -5.45963 0.749246 0.626363
thorax -2.31188 -0.013174 -2.97532
lowerneck -13.8685 6.04798 9.23406
upperneck 39.4675 3.77173 -4.10611
head 17.0592 0.970708 -3.23775
rclavicle -1.78704e-014 1.68967e-015
rhumerus -27.722 2.84675 -78.3769
rradius 28.9986
rwrist 8.77721
rhand -11.729 -7.43429
rfingers 7.12502
rthumb 14.3181 -36.9206
lclavicle -1.78704e-014 1.68967e-015
lhumerus -47.2335 11.5318 72.5406
lradius 33.1781
lwrist -18.783
lhand -4.11105 12.4773
lfingers 7.12502
lthumb 21.6473 41.2872
rfemur -3.9687 3.03978 30.7065
rtibia 12.0721
rfoot -16.4665 -15.2001
rtoes 0.863033
lfemur -41.0567 -8.25769 -13.0935
ltibia 25.5234
lfoot -18.2193 20.4438
ltoes -3.22284
3611
root 2.40621 15.5937 24.5402 11.6629 187.343 5.02199
lowerback -5.88197 1.13379 6.56539
upperback -5.48727 0.822282 0.628996
thorax -2.29499 0.0197199 -2.98715
lowerneck -13.9094 6.02951 9.23204
upperneck 39.4663 3.72263 -4.04525
head 17.0626 0.961298 -3.21755
rclavicle -4.65902e-015 2.01766e-014
rhumerus -27.458 2.97703 -78.6651
rradius 29.3248
rwrist 8.32835
rhand -11.8263 -7.48403
rfingers 7.12502
rthumb 14.2244 -36.9769
lclavicle -4.65902e-015 2.01766e-014
lhumerus -47.3605 11.7003 72.3321
lradius 33.0078
lwrist -18.9555
lhand -4.00314 12.4595
lfingers 7.12502
lthumb 21.7509 41.2574
rfemur -2.87093 3.03219 30.8781
rtibia 10.65
rfoot -16.0994 -15.0466
rtoes 0.627734
lfemur -41.3792 -8.67939 -12.4334
ltibia 24.4437
lfoot -18.648 20.492
ltoes -3.81464
